<svg xmlns="http://www.w3.org/2000/svg" xmlns:xlink="http://www.w3.org/1999/xlink" version="1.1" x="0px" y="0px" viewBox="0 0 100 125" enable-background="new 0 0 100 100" xml:space="preserve"><rect x="34" y="30" fill="#000000" width="22" height="2"/><rect x="34" y="38" fill="#000000" width="32" height="2"/><rect x="34" y="46" fill="#000000" width="32" height="2"/><rect x="34" y="54" fill="#000000" width="32" height="2"/><rect x="34" y="62" fill="#000000" width="32" height="2"/><rect x="34" y="70" fill="#000000" width="32" height="2"/><path fill="#000000" d="M72,28v-2h-2v-2h-2v-2h-2v2h2v2h2v2H72v2h-8v-8h2v-2h-2v-2H24v64h52V30h-2v-2H72z M74,80H26V20h36v12h12V80z  "/><text x="0" y="115" fill="#000000" font-size="5px" font-weight="bold" font-family="'Helvetica Neue', Helvetica, Arial-Unicode, Arial, Sans-serif">Created by Jamison Wieser</text><text x="0" y="120" fill="#000000" font-size="5px" font-weight="bold" font-family="'Helvetica Neue', Helvetica, Arial-Unicode, Arial, Sans-serif">from the Noun Project</text></svg>